<svg xmlns="http://www.w3.org/2000/svg" version="1.1" xmlns:xlink="http://www.w3.org/1999/xlink" xmlns:svgjs="http://svgjs.com/svgjs" width="100%" height="100%" viewBox="0 0 1000 600"><rect width="1000" height="600" x="0" y="0" fill="#242526"/><g><circle r="166.66666666666666" cx="393.627207438151" cy="415.84940677642624" fill="#1092f3" transform="matrix(0.5507565373437532,0,0,0.5507565373437532,0,70.96821351580941)"/><path d="M339.96249805835225 490.8493804123944L319.82684281863106 490.8493804123944L319.82684281863106 340.8493785587249L351.9892242648825 340.8493785587249L386.0953190374419 438.15652695701544Q387.40125142855504 442.0743241303549 388.8286659025624 446.78175484250687Q390.2560803765698 451.4891855546589 391.4405306847887 455.64994689378676Q392.65535151373115 459.8107082329147 393.2931324489259 462.8477603052708L393.2931324489259 462.8477603052708L394.84202900582756 462.8477603052708Q395.4798099410224 459.5677440671262 396.57314868707056 455.3158711658276Q397.6664874331188 451.06399826452906 399.0027903449555 446.4476791145477Q400.3087227360686 441.86173048528997 401.4020614821168 438.15652695701544L401.4020614821168 438.15652695701544L435.50815625467624 340.8493785587249L467.4275735351392 340.8493785587249L467.4275735351392 490.8493804123944L446.6541373602232 490.8493804123944L446.6541373602232 402.95709343840787Q446.6541373602232 396.1540967963301 446.86673100528816 388.19702036675704Q447.1096951710766 380.20957341646044 447.3222888161416 373.5280588572769Q447.5348824612065 366.876914818817 447.5348824612065 364.02208587080224L447.5348824612065 364.02208587080224L445.7733922592399 364.02208587080224Q445.13561132404516 366.876914818817 443.5867147671435 372.00953282109884Q442.0681887309654 377.14215082338075 440.42818061189314 382.730326636516Q438.7881724928208 388.2881319289277 437.4822401017077 392.6614869131206L437.4822401017077 392.6614869131206L402.2828065831001 490.8493804123944L384.33382883547534 490.8493804123944L349.13439531686777 392.6614869131206Q347.8284629257546 388.9562833848461 346.4010484517472 384.0362590276291Q344.97363397773984 379.1162346704122 343.54621950373246 373.8621345852361Q342.1491755504486 368.60803450006 340.8128726386119 364.02208587080224L340.8128726386119 364.02208587080224L339.29434660243385 364.02208587080224Q339.5069402474988 368.82062814512494 339.62842233039305 375.92732999443825Q339.71953389256373 383.0340318437516 339.841015975458 390.140733693065Q339.96249805835225 397.24743554237835 339.96249805835225 402.95709343840787L339.96249805835225 402.95709343840787L339.96249805835225 490.8493804123944Z " fill="white" transform="matrix(0.5507565373437532,0,0,0.5507565373437532,0,70.96821351580941)"/><path d="M677.6974982364704 490.84937486767575L677.6974982364704 490.84937486767575Q671.7734621773467 490.84937486767575 665.8777707883622 489.4321413607084Q659.9537347292385 488.0149078537409 654.8516941041557 484.72692611757657Q649.7496534790731 481.4672890515515 646.6884291040235 475.65663167298516Q643.627204728974 469.8459742944188 643.627204728974 461.0591265512208L643.627204728974 461.0591265512208Q643.627204728974 450.03304986701437 648.9276580450321 442.89019299189863Q654.2281113610902 435.7473361167829 663.7235758577717 431.77908229727416Q673.2190403544535 427.8108284777654 686.285933288693 426.2802162902406Q699.324481552793 424.7496041027158 714.6306034280411 424.7496041027158L714.6306034280411 424.7496041027158L714.6306034280411 412.5047066025174Q714.6306034280411 406.58067054339364 712.589787178008 402.30062535235203Q710.548970927975 397.99223549117113 705.3618962924743 395.6679725397446Q700.1464769868342 393.3153649181787 690.5659784797344 393.3153649181787L690.5659784797344 393.3153649181787Q681.3823053545857 393.3153649181787 675.9684733579702 395.6679725397446Q670.5546413613547 397.99223549117113 668.4287911009036 401.6770426092864Q666.2745961703131 405.36184972740165 666.2745961703131 409.8403076094187L666.2745961703131 409.8403076094187L666.2745961703131 412.90153198446825L648.9276580450321 412.90153198446825Q648.7292453540566 411.88112385945175 648.7292453540566 410.8607157344352Q648.7292453540566 409.8403076094187 648.7292453540566 408.42307410245127L648.7292453540566 408.42307410245127Q648.7292453540566 398.61581823423677 654.1430773506721 391.98316542162934Q659.5285646771483 385.35051260902185 669.3358205453627 381.9774968624394Q679.1430764135772 378.60448111585697 691.7847992957265 378.60448111585697L691.7847992957265 378.60448111585697Q705.2485176119169 378.60448111585697 714.3471567266477 382.4877009249477Q723.417451171239 386.3709207340384 728.0092877338134 393.51377760915415Q732.6011242963879 400.6566344842699 732.6011242963879 410.66230304345976L732.6011242963879 410.66230304345976L732.6011242963879 468.82556616940224Q732.6011242963879 472.7087859784929 734.4435278554455 474.23939816601774Q736.2859314145031 475.77001035354255 738.9219857374625 475.77001035354255L738.9219857374625 475.77001035354255L746.8868380466193 475.77001035354255L746.8868380466193 487.58973780165076Q744.0240263625451 488.8085586176427 740.5659766055446 489.74393273224115Q737.0795821784048 490.6509621767003 732.6011242963879 490.6509621767003L732.6011242963879 490.6509621767003Q727.3006709803298 490.6509621767003 723.81427655319 488.5251119162492Q720.3562267961895 486.37091698565877 718.5138232371319 482.6010758571254Q716.6714196780742 478.83123472859216 716.0761816051479 474.12601948546035L716.0761816051479 474.12601948546035L714.6306034280411 474.12601948546035Q710.9741409800652 479.228060110543 705.3618962924743 482.9979012390763Q699.7496516048833 486.7677423676096 692.805207420743 488.8085586176427Q685.8607632366027 490.84937486767575 677.6974982364704 490.84937486767575ZM682.2043007886268 475.77001035354255L682.2043007886268 475.77001035354255Q688.7235749206768 475.77001035354255 694.5342322992433 473.7291941035094Q700.3448896778096 471.6883778534764 704.8516922299659 467.8901920548037Q709.330150111983 464.1203509262704 711.9945491050817 458.8198976102123Q714.6306034280411 453.5194442941542 714.6306034280411 447.1985828530796L714.6306034280411 447.1985828530796L714.6306034280411 438.2133224189062Q698.1056607368012 438.2133224189062 686.4843459796684 440.05572597796385Q674.8346865523963 441.8697848668821 668.6272037918791 446.5750001100139Q662.3913763612225 451.2802153531457 662.3913763612225 459.84030573522887L662.3913763612225 459.84030573522887Q662.3913763612225 465.3391717422624 664.8573626633457 468.82556616940224Q667.2950042953296 472.2836159264027 671.7734621773467 474.0126408049029Q676.280264729503 475.77001035354255 682.2043007886268 475.77001035354255ZM779.9367234290993 488.4117332356918L761.994547230892 488.4117332356918L761.994547230892 381.0704674179803L776.4786736720988 381.0704674179803L778.122664540181 398.81423092521226L779.5398980471484 398.81423092521226Q781.1838889152307 393.7121903001296 784.0183559291654 389.12035373755515Q786.8811676132395 384.5285171749808 791.7847955473469 381.58067148048855Q796.688423481454 378.60448111585697 803.8312803565698 378.60448111585697L803.8312803565698 378.60448111585697Q806.8925047316194 378.60448111585697 809.4435250441608 379.1146851783652Q811.9945453567021 379.62488924087353 813.2133661726941 380.24847198393917L813.2133661726941 380.24847198393917L813.2133661726941 396.7734146751792L806.4673346795291 396.7734146751792Q799.5512351655283 396.7734146751792 794.5342285508636 399.1260222967451Q789.5455666063383 401.47862991831096 786.2859295403133 405.7586751093525Q782.9979478041489 410.0387203003941 781.467335616624 415.96275635951787Q779.9367234290993 421.8867924186416 779.9367234290993 428.60447924166715L779.9367234290993 428.60447924166715L779.9367234290993 488.4117332356918ZM847.7088297322808 488.4117332356918L829.738308863934 488.4117332356918L829.738308863934 340.8493804902452L847.7088297322808 340.8493804902452L847.7088297322808 433.1112817938235L893.2020253059346 381.0704674179803L914.4321832403064 381.0704674179803L877.6974907397112 422.70878785268275L916.4729994903394 488.4117332356918L895.8664242990334 488.4117332356918L866.0761759825784 435.9740934778977L847.7088297322808 454.53985241917076L847.7088297322808 488.4117332356918ZM970.7530428071913 490.84937486767575L970.7530428071913 490.84937486767575Q954.8516828590168 490.84937486767575 943.9389848553678 484.84030479813396Q932.9979421815794 478.83123472859216 927.3856974939886 466.3595798672789Q921.7734528063976 453.91626967610506 921.7734528063976 434.7269279917664L921.7734528063976 434.7269279917664Q921.7734528063976 415.33917361645223 927.3856974939886 403.00924210583577Q932.9979421815794 390.65096592507996 944.0240188657859 384.64189585553817Q955.0500955499924 378.60448111585697 971.5750382412323 378.60448111585697L971.5750382412323 378.60448111585697Q986.6827474255049 378.60448111585697 996.8868286756702 384.4434831645627Q1007.0909099258356 390.2541405431291 1012.3063292314757 401.7904212898438Q1017.4934038669763 413.29835736641917 1017.4934038669763 430.6452954917002L1017.4934038669763 430.6452954917002L1017.4934038669763 439.2337305439227L940.36755641781 439.2337305439227Q940.7643817997609 452.07386611704743 944.1373975463432 460.3505097977371Q947.5104132929257 468.6271534784268 954.2281001159513 472.3969946069601Q960.9741316091161 476.1668357354934 971.1782128592815 476.1668357354934L971.1782128592815 476.1668357354934Q978.1226570434217 476.1668357354934 983.3097316789225 474.43781085699317Q988.5251509845625 472.7087859784929 992.0965794221204 469.42080424232853Q995.6680078596783 466.1611671763035 997.5104114187359 461.6827092942865Q999.3244703076541 457.17590674213017 999.551227668769 451.875453426072L999.551227668769 451.875453426072L1017.0965784850255 451.875453426072Q1016.8981657940501 460.4638884782945 1013.8369414190005 467.6917793638283Q1010.7757170439509 474.9480149195014 1004.851680984827 480.0500555445841Q998.9276449257034 485.1520961696668 990.3675545436201 488.0149078537409Q981.7791194913976 490.84937486767575 970.7530428071913 490.84937486767575ZM940.7643817997609 425.77001222773237L940.7643817997609 425.77001222773237L998.9276449257034 425.77001222773237Q998.9276449257034 416.784751793559 996.8868286756702 410.66230304345976Q994.8460124256371 404.5398542933606 991.0761712971039 400.6566344842699Q987.3063301685706 396.7734146751792 982.2893235539059 395.04438979667896Q977.3006616093807 393.3153649181787 970.979800168306 393.3153649181787L970.979800168306 393.3153649181787Q961.5693696820424 393.3153649181787 955.0500955499924 396.7734146751792Q948.5308214179422 400.25980910231897 945.0444269908025 407.40266597743476Q941.586377233802 414.5455228525505 940.7643817997609 425.77001222773237ZM1064.8573476698273 490.84937486767575L1064.8573476698273 490.84937486767575Q1056.46732530858 490.84937486767575 1051.7904547355877 487.70311648220815Q1047.085239492456 484.52851342660114 1045.044423242423 479.3414387911004Q1043.0036069923897 474.12601948546035 1043.0036069923897 468.20198342633654L1043.0036069923897 468.20198342633654L1043.0036069923897 396.17817660225285L1029.1430632942483 396.17817660225285L1029.1430632942483 381.0704674179803L1043.42877704448 381.0704674179803L1046.6884141105052 351.05346174041057L1060.9741278607364 351.05346174041057L1060.9741278607364 381.0704674179803L1081.1838776700918 381.0704674179803L1081.1838776700918 396.17817660225285L1060.9741278607364 396.17817660225285L1060.9741278607364 465.5659291033772Q1060.9741278607364 470.66796972845987 1062.816531419794 473.2189900410012Q1064.6305903087123 475.77001035354255 1069.732630933795 475.77001035354255L1069.732630933795 475.77001035354255L1081.1838776700918 475.77001035354255L1081.1838776700918 487.58973780165076Q1079.1430614200585 488.61014592666726 1076.2802497359844 489.2337286697329Q1073.4174380519103 489.82896674265925 1070.4695923574182 490.3391708051675Q1067.4934019927866 490.84937486767575 1064.8573476698273 490.84937486767575ZM1123.219023486745 488.4117332356918L1103.8312691114309 488.4117332356918L1103.8312691114309 348.41740741745116L1173.0206089215799 348.41740741745116Q1187.5047353627867 348.41740741745116 1197.0852338698865 353.83123941406666Q1206.6940770471256 359.21672674054287 1211.4843263006753 368.8255699177819Q1216.274575554225 378.40606842488154 1216.274575554225 391.07613597717017L1216.274575554225 391.07613597717017Q1216.274575554225 403.9162715502949 1210.9741222381672 413.8085614289274Q1205.6736689221088 423.72919597769925 1195.9797917344517 429.22806198473285Q1186.2859145467946 434.7269279917664 1172.793851560465 434.7269279917664L1172.793851560465 434.7269279917664L1123.219023486745 434.7269279917664L1123.219023486745 488.4117332356918ZM1123.219023486745 365.1407627996666L1123.219023486745 418.00357260955093L1171.5750307444732 418.00357260955093Q1182.9979328106306 418.00357260955093 1189.8573429843527 410.8607157344352Q1196.6884084879357 403.71785885931945 1196.6884084879357 391.2745486681456L1196.6884084879357 391.2745486681456Q1196.6884084879357 382.9128709770379 1193.8255968038613 377.18724760888955Q1190.9627851197872 371.46162424074123 1185.4639191127537 368.3153658552736Q1179.9367084355808 365.1407627996666 1171.5750307444732 365.1407627996666L1171.5750307444732 365.1407627996666L1123.219023486745 365.1407627996666ZM1254.0296761798368 488.4117332356918L1236.05915531149 488.4117332356918L1236.05915531149 340.8493804902452L1254.0296761798368 340.8493804902452L1254.0296761798368 488.4117332356918ZM1308.9333022397543 490.84937486767575L1308.9333022397543 490.84937486767575Q1303.0092661806307 490.84937486767575 1297.0852301215068 489.4321413607084Q1291.161194062383 488.0149078537409 1286.0591534373002 484.72692611757657Q1280.9571128122177 481.4672890515515 1277.8958884371682 475.65663167298516Q1274.8346640621185 469.8459742944188 1274.8346640621185 461.0591265512208L1274.8346640621185 461.0591265512208Q1274.8346640621185 450.03304986701437 1280.163462048316 442.89019299189863Q1285.4639153643739 435.7473361167829 1294.9593798610558 431.77908229727416Q1304.4264996875982 427.8108284777654 1317.4933926218375 426.2802162902406Q1330.560285556077 424.7496041027158 1345.8664074313251 424.7496041027158L1345.8664074313251 424.7496041027158L1345.8664074313251 412.5047066025174Q1345.8664074313251 406.58067054339364 1343.8255911812919 402.30062535235203Q1341.7847749312587 397.99223549117113 1336.5693556256188 395.6679725397446Q1331.382280990118 393.3153649181787 1321.773437812879 393.3153649181787L1321.773437812879 393.3153649181787Q1312.5897646877302 393.3153649181787 1307.204277361254 395.6679725397446Q1301.7904453646386 397.99223549117113 1299.6362504340482 401.6770426092864Q1297.510400173597 405.36184972740165 1297.510400173597 409.8403076094187L1297.510400173597 409.8403076094187L1297.510400173597 412.90153198446825L1280.163462048316 412.90153198446825Q1279.9367046872012 411.88112385945175 1279.9367046872012 410.8607157344352Q1279.9367046872012 409.8403076094187 1279.9367046872012 408.42307410245127L1279.9367046872012 408.42307410245127Q1279.9367046872012 398.61581823423677 1285.3505366838167 391.98316542162934Q1290.7643686804322 385.35051260902185 1300.5716245486465 381.9774968624394Q1310.3505357467216 378.60448111585697 1323.0206032990104 378.60448111585697L1323.0206032990104 378.60448111585697Q1336.4843216152008 378.60448111585697 1345.5546160597921 382.4877009249477Q1354.653255174523 386.3709207340384 1359.2450917370973 393.51377760915415Q1363.8369282996719 400.6566344842699 1363.8369282996719 410.66230304345976L1363.8369282996719 410.66230304345976L1363.8369282996719 468.82556616940224Q1363.8369282996719 472.7087859784929 1365.65098718859 474.23939816601774Q1367.4933907476475 475.77001035354255 1370.1577897407465 475.77001035354255L1370.1577897407465 475.77001035354255L1378.1226420499033 475.77001035354255L1378.1226420499033 487.58973780165076Q1375.2598303658292 488.8085586176427 1371.773435938689 489.74393273224115Q1368.3153861816886 490.6509621767003 1363.8369282996719 490.6509621767003L1363.8369282996719 490.6509621767003Q1358.5081303134743 490.6509621767003 1355.0500805564739 488.5251119162492Q1351.5920307994734 486.37091698565877 1349.7496272404157 482.6010758571254Q1347.9072236813581 478.83123472859216 1347.2836409382924 474.12601948546035L1347.2836409382924 474.12601948546035L1345.8664074313251 474.12601948546035Q1342.1816003132099 479.228060110543 1336.5693556256188 482.9979012390763Q1330.9571109380279 486.7677423676096 1324.041011424027 488.8085586176427Q1317.0965672398866 490.84937486767575 1308.9333022397543 490.84937486767575ZM1313.4117601217713 475.77001035354255L1313.4117601217713 475.77001035354255Q1319.9593789239607 475.77001035354255 1325.7700363025272 473.7291941035094Q1331.5806936810936 471.6883778534764 1336.0591515631106 467.8901920548037Q1340.5659541152668 464.1203509262704 1343.2020084382261 458.8198976102123Q1345.8664074313251 453.5194442941542 1345.8664074313251 447.1985828530796L1345.8664074313251 447.1985828530796L1345.8664074313251 438.2133224189062Q1329.341464740085 438.2133224189062 1317.691805312813 440.05572597796385Q1306.0704905556802 441.8697848668821 1299.8346631250236 446.5750001100139Q1293.6271803645063 451.2802153531457 1293.6271803645063 459.84030573522887L1293.6271803645063 459.84030573522887Q1293.6271803645063 465.3391717422624 1296.0648219964903 468.82556616940224Q1298.5308082986135 472.2836159264027 1303.0092661806307 474.0126408049029Q1307.4877240626474 475.77001035354255 1313.4117601217713 475.77001035354255ZM1434.018331564698 490.84937486767575L1434.018331564698 490.84937486767575Q1418.5137969984744 490.84937486767575 1407.9979243767762 484.84030479813396Q1397.5103964252176 478.83123472859216 1392.0965644286018 466.2745458568609Q1386.6827324319866 453.71785698512963 1386.6827324319866 434.7269279917664L1386.6827324319866 434.7269279917664Q1386.6827324319866 415.76434366854244 1392.0965644286018 403.3210334773686Q1397.5103964252176 390.8493786160554 1408.224681737891 384.7269298659562Q1418.9389670505648 378.60448111585697 1434.6419143077635 378.60448111585697L1434.6419143077635 378.60448111585697Q1445.66799099197 378.60448111585697 1453.7178773115447 381.46729279993116Q1461.7961083012592 384.3301044840053 1467.096561617317 389.8289704910389Q1472.3970149333752 395.3561811682118 1474.9480352459168 403.0942761162538Q1477.499055558458 410.8607157344352 1477.499055558458 420.8663842936251L1477.499055558458 420.8663842936251L1459.3301219991358 420.8663842936251Q1459.3301219991358 411.4842984775009 1456.7791016865945 405.4468837378197Q1454.228081374053 399.4378136682779 1448.7292153670196 396.4616233036463Q1443.2020046898465 393.51377760915415 1434.2450889258125 393.51377760915415L1434.2450889258125 393.51377760915415Q1425.2598284916394 393.51377760915415 1418.7122096894498 397.4820314286629Q1412.1929355573998 401.47862991831096 1408.7348858003993 410.0387203003941Q1405.2484913732594 418.6271553526166 1405.2484913732594 432.6861117417333L1405.2484913732594 432.6861117417333L1405.2484913732594 436.9945016029142Q1405.2484913732594 450.2598072281292 1408.6215071198417 459.01831030118774Q1411.9945228664242 467.8051580443857 1418.5137969984744 471.8867905444518Q1425.0614158006638 475.968423044518 1434.4435016167881 475.968423044518L1434.4435016167881 475.968423044518Q1443.6271747419369 475.968423044518 1449.239419429528 472.7087859784929Q1454.8516641171186 469.42080424232853 1457.4026844296602 463.29835549222935Q1459.9537047422014 457.17590674213017 1459.9537047422014 448.61581636004695L1459.9537047422014 448.61581636004695L1477.499055558458 448.61581636004695Q1477.499055558458 457.6010767942203 1474.9480352459168 465.3391717422624Q1472.3970149333752 473.1056113604438 1467.096561617317 478.83123472859216Q1461.7961083012592 484.52851342660114 1453.6328433011267 487.70311648220815Q1445.4695783009943 490.84937486767575 1434.018331564698 490.84937486767575ZM1541.983180125475 490.84937486767575L1541.983180125475 490.84937486767575Q1526.0818201773004 490.84937486767575 1515.1407775035123 484.84030479813396Q1504.2280794998633 478.83123472859216 1498.6158348122722 466.3595798672789Q1493.0035901246815 453.91626967610506 1493.0035901246815 434.7269279917664L1493.0035901246815 434.7269279917664Q1493.0035901246815 415.33917361645223 1498.6158348122722 403.00924210583577Q1504.2280794998633 390.65096592507996 1515.2541561840696 384.64189585553817Q1526.2802328682762 378.60448111585697 1542.805175559516 378.60448111585697L1542.805175559516 378.60448111585697Q1557.9128847437887 378.60448111585697 1568.1169659939542 384.4434831645627Q1578.3210472441194 390.2541405431291 1583.5081218796201 401.7904212898438Q1588.7235411852603 413.29835736641917 1588.7235411852603 430.6452954917002L1588.7235411852603 430.6452954917002L1588.7235411852603 439.2337305439227L1511.5693490659546 439.2337305439227Q1511.9945191180445 452.07386611704743 1515.367534864627 460.3505097977371Q1518.7122059410704 468.6271534784268 1525.4582374342351 472.3969946069601Q1532.2042689273999 476.1668357354934 1542.4083501775654 476.1668357354934L1542.4083501775654 476.1668357354934Q1549.3244496915663 476.1668357354934 1554.5398689972062 474.43781085699317Q1559.7552883028466 472.7087859784929 1563.3267167404042 469.42080424232853Q1566.898145177962 466.1611671763035 1568.7122040668805 461.6827092942865Q1570.554607625938 457.17590674213017 1570.7530203169135 451.875453426072L1570.7530203169135 451.875453426072L1588.3267158033093 451.875453426072Q1588.0999584421945 460.4638884782945 1585.0387340671448 467.6917793638283Q1581.9775096920953 474.9480149195014 1576.081818303111 480.0500555445841Q1570.1577822439872 485.1520961696668 1561.5693471917648 488.0149078537409Q1553.0092568096816 490.84937486767575 1541.983180125475 490.84937486767575ZM1511.9945191180445 425.77001222773237L1511.9945191180445 425.77001222773237L1570.1577822439872 425.77001222773237Q1570.1577822439872 416.784751793559 1568.1169659939542 410.66230304345976Q1566.076149743921 404.5398542933606 1562.306308615388 400.6566344842699Q1558.508122816715 396.7734146751792 1553.5194608721897 395.04438979667896Q1548.5307989276644 393.3153649181787 1542.1815928164503 393.3153649181787L1542.1815928164503 393.3153649181787Q1532.7995070003262 393.3153649181787 1526.2802328682762 396.7734146751792Q1519.7326140660869 400.25980910231897 1516.2745643090861 407.40266597743476Q1512.816514552086 414.5455228525505 1511.9945191180445 425.77001222773237Z " fill="white" transform="matrix(0.5507565373437532,0,0,0.5507565373437532,0,70.96821351580941)"/></g></svg>